<mxfile host="app.diagrams.net" modified="2022-08-14T11:05:46.036Z" agent="5.0 (Macintosh; Intel Mac OS X 10_15_7) AppleWebKit/537.36 (KHTML, like Gecko) Chrome/103.0.0.0 Safari/537.36" etag="yOOgrHrk8FvlocF81WfL" version="20.2.3" type="github">
  <diagram id="B5zw7485aqpwtRBuWSJ5" name="第 1 页">
    <mxGraphModel dx="1000" dy="1822" grid="1" gridSize="10" guides="1" tooltips="1" connect="1" arrows="1" fold="1" page="1" pageScale="1" pageWidth="827" pageHeight="1169" math="0" shadow="0">
      <root>
        <mxCell id="0" />
        <mxCell id="1" parent="0" />
        <mxCell id="qZeqM19lw-VbOMVgYbrf-1" value="图片资源" style="rounded=1;whiteSpace=wrap;html=1;" vertex="1" parent="1">
          <mxGeometry x="50" y="250" width="120" height="60" as="geometry" />
        </mxCell>
        <mxCell id="qZeqM19lw-VbOMVgYbrf-3" value="" style="endArrow=classic;html=1;rounded=0;exitX=1;exitY=0.5;exitDx=0;exitDy=0;entryX=0;entryY=0.5;entryDx=0;entryDy=0;entryPerimeter=0;" edge="1" parent="1" source="qZeqM19lw-VbOMVgYbrf-1" target="qZeqM19lw-VbOMVgYbrf-12">
          <mxGeometry width="50" height="50" relative="1" as="geometry">
            <mxPoint x="390" y="300" as="sourcePoint" />
            <mxPoint x="280" y="280" as="targetPoint" />
          </mxGeometry>
        </mxCell>
        <mxCell id="qZeqM19lw-VbOMVgYbrf-4" value="压缩后的图片资源" style="rounded=1;whiteSpace=wrap;html=1;" vertex="1" parent="1">
          <mxGeometry x="670" y="250" width="120" height="60" as="geometry" />
        </mxCell>
        <mxCell id="qZeqM19lw-VbOMVgYbrf-12" value="本地缓存" style="shape=cylinder3;whiteSpace=wrap;html=1;boundedLbl=1;backgroundOutline=1;size=15;" vertex="1" parent="1">
          <mxGeometry x="240" y="232.5" width="120" height="95" as="geometry" />
        </mxCell>
        <mxCell id="qZeqM19lw-VbOMVgYbrf-14" value="" style="endArrow=classic;html=1;rounded=0;exitX=1;exitY=0.5;exitDx=0;exitDy=0;entryX=0;entryY=0.5;entryDx=0;entryDy=0;" edge="1" parent="1" source="qZeqM19lw-VbOMVgYbrf-18" target="qZeqM19lw-VbOMVgYbrf-4">
          <mxGeometry width="50" height="50" relative="1" as="geometry">
            <mxPoint x="400" y="280" as="sourcePoint" />
            <mxPoint x="640" y="280" as="targetPoint" />
          </mxGeometry>
        </mxCell>
        <mxCell id="qZeqM19lw-VbOMVgYbrf-16" value="" style="endArrow=classic;html=1;rounded=0;entryX=0.075;entryY=0.738;entryDx=0;entryDy=0;entryPerimeter=0;" edge="1" parent="1" target="qZeqM19lw-VbOMVgYbrf-23">
          <mxGeometry width="50" height="50" relative="1" as="geometry">
            <mxPoint x="459.5" y="240" as="sourcePoint" />
            <mxPoint x="459.5" y="130" as="targetPoint" />
            <Array as="points">
              <mxPoint x="460" y="80" />
            </Array>
          </mxGeometry>
        </mxCell>
        <mxCell id="qZeqM19lw-VbOMVgYbrf-17" value="NO" style="text;html=1;strokeColor=none;fillColor=none;align=center;verticalAlign=middle;whiteSpace=wrap;rounded=0;" vertex="1" parent="1">
          <mxGeometry x="420" y="160" width="40" height="30" as="geometry" />
        </mxCell>
        <mxCell id="qZeqM19lw-VbOMVgYbrf-18" value="是否有缓存" style="rhombus;whiteSpace=wrap;html=1;" vertex="1" parent="1">
          <mxGeometry x="420" y="240" width="80" height="80" as="geometry" />
        </mxCell>
        <mxCell id="qZeqM19lw-VbOMVgYbrf-19" value="" style="endArrow=classic;html=1;rounded=0;exitX=1;exitY=0.5;exitDx=0;exitDy=0;exitPerimeter=0;entryX=0;entryY=0.5;entryDx=0;entryDy=0;" edge="1" parent="1" source="qZeqM19lw-VbOMVgYbrf-12" target="qZeqM19lw-VbOMVgYbrf-18">
          <mxGeometry width="50" height="50" relative="1" as="geometry">
            <mxPoint x="370" y="170" as="sourcePoint" />
            <mxPoint x="420" y="120" as="targetPoint" />
          </mxGeometry>
        </mxCell>
        <mxCell id="qZeqM19lw-VbOMVgYbrf-20" value="YES" style="text;html=1;strokeColor=none;fillColor=none;align=center;verticalAlign=middle;whiteSpace=wrap;rounded=0;" vertex="1" parent="1">
          <mxGeometry x="550" y="250" width="50" height="30" as="geometry" />
        </mxCell>
        <mxCell id="qZeqM19lw-VbOMVgYbrf-21" value="返回缓存资源" style="text;html=1;strokeColor=none;fillColor=none;align=center;verticalAlign=middle;whiteSpace=wrap;rounded=0;" vertex="1" parent="1">
          <mxGeometry x="545" y="290" width="75" height="30" as="geometry" />
        </mxCell>
        <mxCell id="qZeqM19lw-VbOMVgYbrf-23" value="TinyPNG &lt;br&gt;云服务" style="ellipse;shape=cloud;whiteSpace=wrap;html=1;" vertex="1" parent="1">
          <mxGeometry x="510" y="20" width="120" height="80" as="geometry" />
        </mxCell>
        <mxCell id="qZeqM19lw-VbOMVgYbrf-24" value="" style="endArrow=classic;html=1;rounded=0;entryX=0.5;entryY=0;entryDx=0;entryDy=0;" edge="1" parent="1" target="qZeqM19lw-VbOMVgYbrf-4">
          <mxGeometry width="50" height="50" relative="1" as="geometry">
            <mxPoint x="620" y="80" as="sourcePoint" />
            <mxPoint x="700" y="240" as="targetPoint" />
            <Array as="points">
              <mxPoint x="730" y="80" />
            </Array>
          </mxGeometry>
        </mxCell>
        <mxCell id="qZeqM19lw-VbOMVgYbrf-26" value="" style="endArrow=classic;html=1;rounded=0;exitX=0.4;exitY=0.1;exitDx=0;exitDy=0;exitPerimeter=0;" edge="1" parent="1" source="qZeqM19lw-VbOMVgYbrf-23">
          <mxGeometry width="50" height="50" relative="1" as="geometry">
            <mxPoint x="560" y="20" as="sourcePoint" />
            <mxPoint x="300" y="230" as="targetPoint" />
            <Array as="points">
              <mxPoint x="558" />
              <mxPoint x="300" />
            </Array>
          </mxGeometry>
        </mxCell>
        <mxCell id="qZeqM19lw-VbOMVgYbrf-28" value="返回压缩图片" style="text;html=1;strokeColor=none;fillColor=none;align=center;verticalAlign=middle;whiteSpace=wrap;rounded=0;" vertex="1" parent="1">
          <mxGeometry x="730" y="160" width="60" height="30" as="geometry" />
        </mxCell>
        <mxCell id="qZeqM19lw-VbOMVgYbrf-29" value="同时 写入缓存，以便下次使用" style="text;html=1;strokeColor=none;fillColor=none;align=center;verticalAlign=middle;whiteSpace=wrap;rounded=0;" vertex="1" parent="1">
          <mxGeometry x="340" y="-30" width="180" height="30" as="geometry" />
        </mxCell>
        <mxCell id="qZeqM19lw-VbOMVgYbrf-30" value="图片压缩插件" style="swimlane;dashed=1;" vertex="1" parent="1">
          <mxGeometry x="190" y="-90" width="450" height="460" as="geometry" />
        </mxCell>
        <mxCell id="qZeqM19lw-VbOMVgYbrf-22" value="&amp;nbsp; 调用 API&lt;br&gt;&amp;nbsp;Promise.all" style="text;html=1;strokeColor=none;fillColor=none;align=center;verticalAlign=middle;whiteSpace=wrap;rounded=0;rotation=0;" vertex="1" parent="qZeqM19lw-VbOMVgYbrf-30">
          <mxGeometry x="240" y="250" width="140" height="30" as="geometry" />
        </mxCell>
      </root>
    </mxGraphModel>
  </diagram>
</mxfile>
